<?xml version="1.0" encoding="UTF-8"?>
<svg id="Layer_1" data-name="Layer 1" xmlns="http://www.w3.org/2000/svg" width="32" height="32" version="1.1" viewBox="0 0 32 32">
  <defs>
    <style>
      .cls-1 {
        fill: #000;
        fill-rule: evenodd;
        stroke-width: 0px;
      }
    </style>
  </defs>
  <path class="cls-1" d="M7.3,4h8v4H7.3v-4ZM14,10.7h8v4h-8v-4ZM14,17.3h8v4h-8v-4ZM20.7,24h8v4h-8v-4ZM12,9.3v2h.7v2h-2.7v-4h2ZM18.7,22.7v2h.7v2h-2.7v-4h2ZM12,14.7v3.3h.7v2h-2.7v-5.3h2Z"/>
  <path class="cls-1" d="M9.2,20.4l3.8,3.8c.5.5.5,1.4,0,1.9l-3.8,3.8c-.5.5-1.4.5-1.9,0-.5-.5-.5-1.4,0-1.9,0,0,0,0,0,0l1.5-1.5H2.9c-.7,0-1.3-.6-1.3-1.3s.6-1.3,1.3-1.3h5.9l-1.5-1.5c-.5-.5-.5-1.4,0-1.9.5-.5,1.4-.5,1.9,0h0Z"/>
</svg>